# xmcd
#
# Track frame offsets: 
#        150
#        17512
#        34235
#        51121
#        79273
#        95165
#        123238
#        143707
#        170329
#        195519
#        212370
#
# Disc length: 3221 seconds
#
# Revision: 0
# Processed by: cddbd v1.5.2PL0 Copyright (c) Steve Scherf et al.
# Submitted via: ExactAudioCopyFreeDBPlugin 1.0
#
DISCID=8c0c930b
DTITLE=The Berlin Blues Allstar band - Barnyard Blues
DYEAR=2019
DGENRE=Blues
TTITLE0=Heads Up
TTITLE1=Let The Good Times Roll
TTITLE2=You Can Have My Husband
TTITLE3=Cleanheads Blues
TTITLE4=Rock Me Baby
TTITLE5=I'd Rather Go Blind
TTITLE6=Never Make Your Move Too Soon
TTITLE7=Shake Your Hips
TTITLE8=Superstition
TTITLE9=Come On Home
TTITLE10=I Put A Spell On You
EXTD=
EXTT0=
EXTT1=
EXTT2=
EXTT3=
EXTT4=
EXTT5=
EXTT6=
EXTT7=
EXTT8=
EXTT9=
EXTT10=
PLAYORDER=
